<svg width="78" height="69" viewBox="0 0 78 69" fill="none" xmlns="http://www.w3.org/2000/svg">
<path d="M68.1571 22.2109L53.7965 30.2435C50.4373 32.1225 50.3718 36.9333 53.6787 38.9029L67.8154 47.3233C71.1222 49.293 75.3213 46.9443 75.3736 43.0956L75.5975 26.6427C75.6499 22.794 71.5163 20.3319 68.1571 22.2109Z" fill="#F2CC8F" stroke="black" stroke-width="2"/>
<path d="M11.2659 47.0678L25.5116 38.833C28.8439 36.9068 28.8413 32.0955 25.507 30.1728L11.2526 21.9531C7.91827 20.0304 3.75288 22.4382 3.75492 26.2872L3.76365 42.7417C3.76569 46.5907 7.93362 48.9941 11.2659 47.0678Z" fill="#F2CC8F" stroke="black" stroke-width="2"/>
<path d="M26.2394 9.83387L34.7433 23.9205C36.7325 27.2157 41.5428 27.1218 43.4019 23.7515L51.3494 9.34359C53.2084 5.97332 50.7219 1.85441 46.8736 1.92955L30.4223 2.25077C26.574 2.32591 24.2502 6.53874 26.2394 9.83387Z" fill="#F2CC8F" stroke="black" stroke-width="2"/>
<path d="M52.0574 59.75L43.8301 45.5C41.9056 42.1667 37.0944 42.1667 35.1699 45.5L26.9426 59.75C25.0181 63.0833 27.4237 67.25 31.2728 67.25H47.7272C51.5762 67.25 53.9819 63.0833 52.0574 59.75Z" fill="#F2CC8F" stroke="black" stroke-width="2"/>
</svg>
