<svg width="43" height="40" viewBox="0 0 43 40" fill="none" xmlns="http://www.w3.org/2000/svg">
<path d="M29.0718 35.0402L24.1509 26.5168C23.0163 24.5517 20.1799 24.5517 19.0454 26.5168L14.1244 35.0402C12.9899 37.0053 14.4081 39.4617 16.6772 39.4617H26.5191C28.7882 39.4617 30.2064 37.0053 29.0718 35.0402Z" fill="#02BEFE" stroke="black" stroke-width="0.923364"/>
<path d="M37.8883 12.0026L29.3847 16.9578C27.4242 18.1002 27.4356 20.9366 29.4052 22.0633L37.9483 26.95C39.9179 28.0766 42.3686 26.6486 42.3595 24.3795L42.32 14.5376C42.3109 12.2685 39.8488 10.8602 37.8883 12.0026Z" fill="#02BEFE" stroke="black" stroke-width="0.923364"/>
<path d="M5.02361 27.0727L13.7279 22.4794C15.7348 21.4204 15.8426 18.586 13.9221 17.3776L5.59199 12.136C3.67144 10.9276 1.16291 12.2514 1.07662 14.5188L0.702383 24.3536C0.616099 26.6211 3.01679 28.1317 5.02361 27.0727Z" fill="#02BEFE" stroke="black" stroke-width="0.923364"/>
<path d="M14.1406 4.96317L19.0452 13.4959C20.176 15.4632 23.0124 15.4686 24.1507 13.5057L29.088 4.99179C30.2263 3.02886 28.8128 0.569761 26.5437 0.565415L16.7018 0.546566C14.4327 0.54222 13.0098 2.99589 14.1406 4.96317Z" fill="#02BEFE" stroke="black" stroke-width="0.923364"/>
</svg>
