<svg width="92" height="82" viewBox="0 0 92 82" fill="none" xmlns="http://www.w3.org/2000/svg">
<g clip-path="url(#clip0_1_11)">
<path d="M63.4904 74.5L53.5311 57.25C52.1839 54.9167 48.8161 54.9167 47.4689 57.25L37.5096 74.5C36.1625 76.8333 37.8464 79.75 40.5407 79.75H60.4593C63.1536 79.75 64.8375 76.8333 63.4904 74.5Z" fill="#F2CC8F" stroke="black"/>
<path d="M36.7723 23.0927L47.0665 40.145C48.4589 42.4515 51.8261 42.3858 53.1275 40.0266L62.7481 22.5855C64.0495 20.2263 62.3089 17.343 59.6151 17.3956L39.7003 17.7845C37.0065 17.8371 35.3799 20.7861 36.7723 23.0927Z" fill="#F2CC8F" stroke="black"/>
<path d="M21.5162 61.5018L38.7609 51.5333C41.0935 50.185 41.0917 46.8171 38.7577 45.4712L21.5024 35.521C19.1683 34.1751 16.2526 35.8606 16.254 38.5549L16.2646 58.4735C16.266 61.1678 19.1835 62.8502 21.5162 61.5018Z" fill="#F2CC8F" stroke="black"/>
<path d="M79.9129 35.8017L62.529 45.5254C60.1775 46.8407 60.1317 50.2082 62.4465 51.587L79.5594 61.7801C81.8742 63.1589 84.8135 61.5148 84.8501 58.8207L85.1211 38.904C85.1578 36.2099 82.2643 34.4864 79.9129 35.8017Z" fill="#F2CC8F" stroke="black"/>
</g>
<defs>
<clipPath id="clip0_1_11">
<rect width="92" height="82" fill="white"/>
</clipPath>
</defs>
</svg>
