<svg width="61" height="57" viewBox="0 0 61 57" fill="none" xmlns="http://www.w3.org/2000/svg">
<path d="M41.5222 49.925L34.594 37.925C32.9967 35.1583 29.0033 35.1583 27.406 37.925L20.4778 49.925C18.8805 52.6917 20.8771 56.15 24.0718 56.15H37.9282C41.1229 56.15 43.1195 52.6917 41.5222 49.925Z" fill="#02BEFE" stroke="black" stroke-width="1.3"/>
<path d="M53.9348 17.4906L41.9627 24.4669C39.2025 26.0753 39.2185 30.0686 41.9916 31.6548L54.0193 38.5348C56.7923 40.121 60.2426 38.1105 60.2298 34.9158L60.1742 21.0595C60.1613 17.8649 56.695 15.8821 53.9348 17.4906Z" fill="#02BEFE" stroke="black" stroke-width="1.3"/>
<path d="M7.66481 38.7076L19.9196 32.2407C22.745 30.7497 22.8968 26.7593 20.1929 25.0579L8.46504 17.6784C5.76111 15.977 2.22935 17.8407 2.10788 21.0331L1.58098 34.8795C1.4595 38.0718 4.83941 40.1986 7.66481 38.7076Z" fill="#02BEFE" stroke="black" stroke-width="1.3"/>
<path d="M20.5006 7.57971L27.4058 19.593C28.9978 22.3627 32.9912 22.3703 34.5938 19.6067L41.545 7.62002C43.1476 4.85642 41.1576 1.39427 37.9629 1.38815L24.1065 1.36161C20.9118 1.35549 18.9085 4.80999 20.5006 7.57971Z" fill="#02BEFE" stroke="black" stroke-width="1.3"/>
</svg>
